<svg width="32" height="32" viewBox="0 0 32 32" fill="none" xmlns="http://www.w3.org/2000/svg">
<g clip-path="url(#clip0_11224_453)">
<path d="M12.5001 14.41C12.8201 14.18 12.9601 13.76 12.9601 13.25C12.9601 12.97 12.9101 12.7 12.8201 12.51C12.7201 12.32 12.5801 12.17 12.4001 12.05C12.2101 11.95 12.0101 11.87 11.8001 11.82C11.5701 11.77 11.3301 11.77 11.0601 11.77H8.37012V14.78C8.37012 14.78 11.2301 14.78 11.2501 14.78C11.7601 14.78 12.1801 14.64 12.5001 14.41Z" fill="white"/>
<path d="M11.4301 16.6799H8.37012V20.2399H11.3901C11.6701 20.2399 11.9501 20.1999 12.1801 20.1599C12.4101 20.1099 12.6501 20.0199 12.8301 19.8799C13.0101 19.7399 13.1601 19.5999 13.3001 19.3699C13.3901 19.1399 13.4801 18.8599 13.4801 18.5299C13.4801 17.8799 13.3001 17.4199 12.9201 17.0899C12.5501 16.8099 12.0301 16.6699 11.4301 16.6699V16.6799Z" fill="white"/>
<path d="M29 0H3C1.34 0 0 1.34 0 3V29C0 30.66 1.34 32 3 32H29C30.66 32 32 30.66 32 29V3C32 1.34 30.66 0 29 0ZM19.2 10.48H24.41V11.73H19.2V10.48ZM15.94 20.33C15.7 20.8 15.35 21.19 14.92 21.49C14.5 21.77 13.99 22 13.43 22.14C12.88 22.28 12.32 22.36 11.76 22.37H5.53V9.61H11.62C12.22 9.61 12.78 9.66 13.29 9.79C13.8 9.88 14.22 10.07 14.59 10.3C14.96 10.53 15.24 10.85 15.43 11.27C15.61 11.69 15.71 12.2 15.71 12.75C15.71 13.4 15.57 13.95 15.24 14.37C14.96 14.79 14.5 15.16 13.93 15.43C14.72 15.66 15.33 16.08 15.69 16.63C16.06 17.18 16.29 17.88 16.29 18.67C16.29 19.32 16.15 19.87 15.92 20.33H15.94ZM26.45 18.38H19.71C19.71 19.14 19.98 19.83 20.36 20.2C20.73 20.57 21.29 20.75 22.03 20.75C22.54 20.75 23.01 20.61 23.38 20.38C23.75 20.1 23.98 19.83 24.07 19.55H26.35C25.98 20.66 25.42 21.45 24.68 21.96C23.94 22.42 23.05 22.7 21.98 22.7C21.3 22.7 20.62 22.58 19.98 22.33C19.41 22.12 18.9 21.77 18.49 21.31C18.06 20.88 17.74 20.36 17.56 19.78C17.33 19.18 17.23 18.53 17.23 17.79C17.23 17.1 17.32 16.45 17.56 15.85C17.8 15.25 18.12 14.74 18.54 14.28C18.96 13.86 19.47 13.49 20.03 13.26C20.65 13.01 21.32 12.89 21.98 12.89C22.77 12.89 23.47 13.03 24.07 13.35C24.67 13.68 25.14 14.04 25.51 14.6C25.88 15.11 26.16 15.71 26.35 16.36C26.44 17.01 26.49 17.66 26.44 18.4L26.45 18.38Z" fill="white"/>
<path d="M23.2898 15.3401C22.9598 15.0101 22.4498 14.8301 21.8498 14.8301C21.4298 14.8301 21.1098 14.9201 20.8298 15.0601C20.5498 15.2001 20.3598 15.3901 20.1798 15.5701C20.0098 15.7501 19.8898 15.9701 19.8498 16.2201C19.7998 16.4501 19.7598 16.6401 19.7598 16.8201H23.9398C23.8498 16.1301 23.6098 15.6701 23.2898 15.3501V15.3401Z" fill="white"/>
</g>
<defs>
<clipPath id="clip0_11224_453">
<rect width="32" height="32" fill="white"/>
</clipPath>
</defs>
</svg>
