<svg width="23" height="23" viewBox="0 0 23 23" fill="none" xmlns="http://www.w3.org/2000/svg">
<path d="M0.482545 0.482545C0.635119 0.329585 0.816371 0.208227 1.01592 0.125424C1.21547 0.0426208 1.42939 0 1.64543 0C1.86148 0 2.0754 0.0426208 2.27495 0.125424C2.4745 0.208227 2.65575 0.329585 2.80832 0.482545L11.5004 9.17794L20.1925 0.482545C20.3453 0.329832 20.5265 0.208693 20.7261 0.126046C20.9256 0.0433983 21.1395 0.000859959 21.3554 0.000859959C21.5714 0.000859959 21.7853 0.0433983 21.9848 0.126046C22.1843 0.208693 22.3656 0.329832 22.5183 0.482545C22.671 0.635258 22.7922 0.816554 22.8748 1.01608C22.9575 1.21561 23 1.42947 23 1.64543C23 1.8614 22.9575 2.07526 22.8748 2.27479C22.7922 2.47432 22.671 2.65561 22.5183 2.80832L13.8229 11.5004L22.5183 20.1925C22.671 20.3453 22.7922 20.5265 22.8748 20.7261C22.9575 20.9256 23 21.1395 23 21.3554C23 21.5714 22.9575 21.7853 22.8748 21.9848C22.7922 22.1843 22.671 22.3656 22.5183 22.5183C22.3656 22.671 22.1843 22.7922 21.9848 22.8748C21.7853 22.9575 21.5714 23 21.3554 23C21.1395 23 20.9256 22.9575 20.7261 22.8748C20.5265 22.7922 20.3453 22.671 20.1925 22.5183L11.5004 13.8229L2.80832 22.5183C2.65561 22.671 2.47432 22.7922 2.27479 22.8748C2.07526 22.9575 1.8614 23 1.64543 23C1.42947 23 1.21561 22.9575 1.01608 22.8748C0.816554 22.7922 0.635258 22.671 0.482545 22.5183C0.329832 22.3656 0.208693 22.1843 0.126046 21.9848C0.0433983 21.7853 0.000859959 21.5714 0.000859959 21.3554C0.000859959 21.1395 0.0433983 20.9256 0.126046 20.7261C0.208693 20.5265 0.329832 20.3453 0.482545 20.1925L9.17794 11.5004L0.482545 2.80832C0.329585 2.65575 0.208227 2.4745 0.125424 2.27495C0.0426208 2.0754 0 1.86148 0 1.64543C0 1.42939 0.0426208 1.21547 0.125424 1.01592C0.208227 0.816371 0.329585 0.635119 0.482545 0.482545Z" fill="#9950F5"/>
</svg>
