<svg width="55" height="61" viewBox="0 0 55 61" fill="none" xmlns="http://www.w3.org/2000/svg">
<path d="M51.8872 0H3.08731C1.22944 0 -0.194919 1.58938 0.0218317 3.39271L5.59543 52.9691C5.71929 54.1917 6.61725 55.2309 7.82487 55.5671L26.6512 60.8854C27.2086 61.0382 27.7969 61.0382 28.3543 60.8854L47.1807 55.5671C48.3883 55.2309 49.2553 54.1917 49.4101 52.9691L54.9837 3.39271C55.1695 1.58938 53.7451 0 51.8872 0ZM40.6472 43.0354C40.5543 43.9524 39.8731 44.7165 38.9751 44.9916L28.1375 48.0481C27.7126 48.1685 27.2619 48.1685 26.837 48.0481L15.9995 44.9916C15.605 44.8859 15.2469 44.6766 14.9634 44.386C14.6798 44.0953 14.4814 43.7342 14.3893 43.3411L12.8411 37.2281C12.5315 36.0055 13.2746 34.7523 14.5441 34.4467C15.7827 34.141 17.0523 34.8746 17.3619 36.1278L18.6005 40.957L27.5182 43.4634L36.2192 41.0182L37.4888 29.8008H15.1015C13.832 29.8008 12.7792 28.7616 12.7792 27.5085C12.7792 26.2553 13.832 25.2161 15.1015 25.2161H37.9533L38.8203 17.5748L13.5533 17.5137C12.2837 17.5137 11.231 16.4745 11.231 15.2213C11.231 13.9682 12.2837 12.929 13.5533 12.929L41.4213 12.9901C42.0715 12.9901 42.7218 13.2652 43.1553 13.7542C43.5888 14.2433 43.8055 14.8851 43.7436 15.527L40.6472 43.0354Z" fill="white"/>
</svg>
