<svg width="17" height="17" viewBox="0 0 17 17" fill="none" xmlns="http://www.w3.org/2000/svg">
<path d="M0.53125 10.3224C0.672146 10.3224 0.807272 10.3783 0.906901 10.478C1.00653 10.5776 1.0625 10.7127 1.0625 10.8536V13.5099C1.0625 13.7916 1.17444 14.0619 1.3737 14.2612C1.57296 14.4604 1.84321 14.5724 2.125 14.5724H14.875C15.1568 14.5724 15.427 14.4604 15.6263 14.2612C15.8256 14.0619 15.9375 13.7916 15.9375 13.5099V10.8536C15.9375 10.7127 15.9935 10.5776 16.0931 10.478C16.1927 10.3783 16.3279 10.3224 16.4688 10.3224C16.6096 10.3224 16.7448 10.3783 16.8444 10.478C16.944 10.5776 17 10.7127 17 10.8536V13.5099C17 14.0734 16.7761 14.6139 16.3776 15.0125C15.9791 15.411 15.4386 15.6349 14.875 15.6349H2.125C1.56141 15.6349 1.02091 15.411 0.622398 15.0125C0.223883 14.6139 0 14.0734 0 13.5099V10.8536C0 10.7127 0.0559708 10.5776 0.1556 10.478C0.255228 10.3783 0.390354 10.3224 0.53125 10.3224Z" fill="white"/>
<path d="M8.12388 12.5949C8.17322 12.6443 8.23185 12.6836 8.29639 12.7104C8.36093 12.7372 8.43012 12.7509 8.5 12.7509C8.56988 12.7509 8.63907 12.7372 8.70361 12.7104C8.76815 12.6836 8.82678 12.6443 8.87613 12.5949L12.0636 9.40738C12.1634 9.30762 12.2194 9.17232 12.2194 9.03125C12.2194 8.89018 12.1634 8.75488 12.0636 8.65512C11.9639 8.55537 11.8286 8.49933 11.6875 8.49933C11.5464 8.49933 11.4111 8.55537 11.3114 8.65512L9.03125 10.9363V1.59375C9.03125 1.45285 8.97528 1.31773 8.87565 1.2181C8.77602 1.11847 8.6409 1.0625 8.5 1.0625C8.3591 1.0625 8.22398 1.11847 8.12435 1.2181C8.02472 1.31773 7.96875 1.45285 7.96875 1.59375V10.9363L5.68863 8.65512C5.58887 8.55537 5.45357 8.49933 5.3125 8.49933C5.17143 8.49933 5.03613 8.55537 4.93637 8.65512C4.83662 8.75488 4.78058 8.89018 4.78058 9.03125C4.78058 9.17232 4.83662 9.30762 4.93637 9.40738L8.12388 12.5949Z" fill="white"/>
</svg>
