<svg width="41" height="61" viewBox="0 0 41 61" fill="none" xmlns="http://www.w3.org/2000/svg">
<path d="M20.3232 0H10.1616C4.54677 0 0 4.54677 0 10.1616C0 15.7764 4.54677 20.3232 10.1616 20.3232H20.3232V0ZM20.3232 20.3598H10.1616C4.54677 20.3598 0 24.9066 0 30.5214C0 36.1362 4.54677 40.6829 10.1616 40.6829H20.3232V20.3598Z" fill="white"/>
<path d="M20.3232 40.6707H10.1616C4.54677 40.6707 0 45.2175 0 50.8323C0 56.4471 4.54677 60.9939 10.1616 60.9939C15.7764 60.9939 20.3232 56.4471 20.3232 50.8323V40.6707V40.6707ZM20.3232 0H30.4847C36.0995 0 40.6463 4.54677 40.6463 10.1616C40.6463 15.7764 36.0995 20.3232 30.4847 20.3232H20.3232V0ZM30.4847 20.3598C36.0995 20.3598 40.6463 24.9066 40.6463 30.5214C40.6463 36.1362 36.0995 40.6829 30.4847 40.6829C24.8699 40.6829 20.3232 36.1362 20.3232 30.5214C20.3232 24.9066 24.8699 20.3598 30.4847 20.3598Z" fill="white"/>
</svg>
