<svg width="32" height="47" viewBox="0 0 32 47" fill="none" xmlns="http://www.w3.org/2000/svg">
<path d="M15.5066 0.00232697H7.75332C3.4692 0.00232697 0 3.47153 0 7.75565C0 12.0398 3.4692 15.509 7.75332 15.509H15.5066V0.00232697ZM15.5066 15.5369H7.75332C3.4692 15.5369 0 19.0061 0 23.2902C0 27.5743 3.4692 31.0435 7.75332 31.0435H15.5066V15.5369Z" fill="white"/>
<path d="M15.5066 31.0342H7.75332C3.4692 31.0342 0 34.5034 0 38.7876C0 43.0717 3.4692 46.5409 7.75332 46.5409C12.0374 46.5409 15.5066 43.0717 15.5066 38.7876V31.0342V31.0342ZM15.5066 0.00232697H23.26C27.5441 0.00232697 31.0133 3.47153 31.0133 7.75565C31.0133 12.0398 27.5441 15.509 23.26 15.509H15.5066V0.00232697ZM23.26 15.5369C27.5441 15.5369 31.0133 19.0061 31.0133 23.2902C31.0133 27.5743 27.5441 31.0435 23.26 31.0435C18.9758 31.0435 15.5066 27.5743 15.5066 23.2902C15.5066 19.0061 18.9758 15.5369 23.26 15.5369Z" fill="white"/>
</svg>
