<svg width="20" height="19" viewBox="0 0 20 19" fill="none" xmlns="http://www.w3.org/2000/svg">
<path d="M10.1866 17.7426C15.1727 17.7426 19.2144 13.9947 19.2144 9.37129C19.2144 4.74782 15.1727 1 10.1866 1C5.20047 1 1.15869 4.74782 1.15869 9.37129C1.15869 13.9947 5.20047 17.7426 10.1866 17.7426Z" stroke="white" stroke-width="1.5" stroke-linecap="round" stroke-linejoin="round"/>
<path d="M6.57523 1.83716H7.47802C5.71761 6.7273 5.71761 12.0153 7.47802 16.9055H6.57523M12.8947 1.83716C14.6551 6.7273 14.6551 12.0153 12.8947 16.9055" stroke="white" stroke-width="1.5" stroke-linecap="round" stroke-linejoin="round"/>
<path d="M2.06104 12.7199V11.8828C7.33473 13.5152 13.0375 13.5152 18.3112 11.8828V12.7199M2.06104 6.86002C7.33473 5.22765 13.0375 5.22765 18.3112 6.86002" stroke="white" stroke-width="1.5" stroke-linecap="round" stroke-linejoin="round"/>
</svg>
