<svg width="54" height="61" viewBox="0 0 54 61" fill="none" xmlns="http://www.w3.org/2000/svg">
<path d="M50.9695 2.3625e-05H3.0309C1.20698 2.3625e-05 -0.191358 1.5894 0.0214328 3.39273L5.49318 52.9691C5.61478 54.1917 6.49634 55.2309 7.68188 55.5671L26.1642 60.8854C26.7114 61.0382 27.289 61.0382 27.8362 60.8854L46.3185 55.5671C47.5041 55.2309 48.3552 54.1917 48.5072 52.9691L53.979 3.39273C54.0293 2.96596 53.989 2.53329 53.8606 2.12337C53.7322 1.71345 53.5187 1.33563 53.2342 1.01489C52.9497 0.694158 52.6007 0.437832 52.2103 0.262877C51.8198 0.0879221 51.3969 -0.00167197 50.9695 2.3625e-05ZM39.9348 16.8107H16.6495L17.6526 25.9802H38.4149C39.0532 25.9802 39.6612 26.2553 40.1172 26.7443C40.5428 27.2334 40.7556 27.8752 40.6948 28.5171L39.1748 43.7996C39.0836 44.7471 38.4453 45.5112 37.5333 45.7863L26.8938 48.8428C26.4766 48.963 26.0342 48.963 25.6171 48.8428L14.9775 45.7863C14.504 45.6474 14.088 45.3578 13.792 44.961C13.496 44.5642 13.336 44.0816 13.336 43.5856V37.4726C13.336 36.2195 14.3696 35.1803 15.6159 35.1803C16.8623 35.1803 17.8958 36.2195 17.8958 37.4726V41.8434L26.2554 44.2581L34.767 41.8129L35.8918 30.5955H15.6159C14.4608 30.5955 13.488 29.7091 13.336 28.5477L11.8161 14.7935C11.7553 14.1516 11.9377 13.5097 12.3937 13.0207C12.6079 12.7799 12.8702 12.5874 13.1636 12.4557C13.457 12.324 13.7747 12.2561 14.096 12.2566H39.9348C41.1812 12.2566 42.2147 13.2958 42.2147 14.5489C42.2147 15.8021 41.1812 16.8107 39.9348 16.8107Z" fill="white"/>
</svg>
