<svg width="62" height="61" viewBox="0 0 62 61" fill="none" xmlns="http://www.w3.org/2000/svg">
<path d="M43.9476 0H18.3758C7.26829 0 0.646484 6.62181 0.646484 17.7294V43.2706C0.646484 54.3782 7.26829 61 18.3758 61H43.9171C55.0247 61 61.6465 54.3782 61.6465 43.2706V17.7294C61.677 6.62181 55.0552 0 43.9476 0ZM34.3964 44.7964C33.8217 44.9902 33.1937 44.948 32.6501 44.6791C32.1066 44.4102 31.692 43.9365 31.4974 43.3622L29.3308 36.8624H19.9321L16.9416 43.5758C16.4229 44.7354 15.0802 45.2541 13.9206 44.7354C12.761 44.2166 12.2423 42.8739 12.761 41.7144L23.5329 17.5158C23.9296 16.6613 24.7535 16.0815 25.73 16.1731C26.676 16.2036 27.4999 16.8444 27.8051 17.7294L35.8611 41.928C36.036 42.5027 35.9811 43.1229 35.7079 43.6579C35.4347 44.193 34.9645 44.6011 34.3964 44.7964ZM46.7245 42.6298C46.7245 43.8809 45.687 44.9185 44.4359 44.9185C43.1848 44.9185 42.1472 43.8809 42.1472 42.6298V26.4872C42.1472 25.2361 43.1848 24.1986 44.4359 24.1986C45.687 24.1986 46.7245 25.2361 46.7245 26.4872V42.6298ZM47.2433 19.5908C47.0907 19.957 46.8771 20.2926 46.5719 20.5673C46.2973 20.8419 45.9616 21.086 45.5955 21.2386C45.2293 21.3912 44.8326 21.4522 44.4359 21.4522C43.833 21.4518 43.2434 21.2755 42.7393 20.9448C42.2352 20.6142 41.8385 20.1436 41.598 19.5908C41.4454 19.1941 41.3844 18.8279 41.3844 18.4007C41.3844 18.004 41.4454 17.6073 41.598 17.2411C41.7811 16.8749 41.9947 16.5393 42.2693 16.2646C42.5439 15.9595 42.8796 15.7459 43.2458 15.5933C44.3749 15.1356 45.748 15.4102 46.5719 16.2646C46.8573 16.5431 47.0851 16.8751 47.2421 17.2416C47.3992 17.6081 47.4826 18.002 47.4874 18.4007C47.4874 18.8279 47.3959 19.2246 47.2433 19.5908Z" fill="white"/>
<path d="M21.9463 32.2547H27.8052L25.303 24.7479L21.9463 32.2547Z" fill="white"/>
</svg>
