<svg width="55" height="61" viewBox="0 0 55 61" fill="none" xmlns="http://www.w3.org/2000/svg">
<path d="M51.9134 2.3625e-05H3.08702C1.22933 2.3625e-05 -0.194901 1.5894 0.0218297 3.39273L5.59491 52.9691C5.71876 54.1917 6.61664 55.2309 7.82414 55.5671L26.6488 60.8854C27.2061 61.0382 27.7943 61.0382 28.3516 60.8854L47.1763 55.5671C48.3838 55.2309 49.2507 54.1917 49.4055 52.9691L54.9786 3.39273C55.0299 2.96596 54.9888 2.53329 54.858 2.12337C54.7272 1.71345 54.5098 1.33563 54.22 1.01489C53.9302 0.694158 53.5747 0.437832 53.1771 0.262877C52.7795 0.0879221 52.3487 -0.00167197 51.9134 2.3625e-05ZM25.5651 42.7604C25.5651 43.4939 25.2245 44.1664 24.6363 44.5943C24.3492 44.8104 24.0144 44.9564 23.6592 45.0201C23.304 45.0839 22.9385 45.0636 22.5928 44.961L12.9328 42.2102C12.6391 42.1273 12.3651 41.9878 12.1264 41.7997C11.8877 41.6116 11.6892 41.3786 11.5424 41.1142C11.3955 40.8499 11.3033 40.5594 11.2709 40.2596C11.2385 39.9598 11.2667 39.6566 11.3538 39.3677C11.6943 38.1451 12.9947 37.4726 14.2332 37.8088L20.9209 39.7039V15.3131C20.9209 14.0599 21.9736 13.0207 23.243 13.0207C24.5124 13.0207 25.5651 14.0599 25.5651 15.3131V42.7604ZM43.7705 40.0401C43.7705 41.0793 43.0584 41.9962 42.0057 42.2713L30.8595 45.0222C30.6738 45.0833 30.488 45.0833 30.3022 45.0833C29.2495 45.0833 28.3207 44.3803 28.042 43.3411C27.7324 42.1185 28.4755 40.8653 29.7449 40.5597L39.1263 38.2368V33.0407L32.0361 34.0494C31.7045 34.0982 31.3661 34.0742 31.045 33.9791C30.7239 33.884 30.428 33.7202 30.1784 33.4992C29.9272 33.2813 29.7257 33.0135 29.5869 32.7132C29.4482 32.4129 29.3754 32.087 29.3734 31.757V16.6273C29.3734 15.4964 30.2093 14.5184 31.3549 14.3655L41.1078 12.9901C42.3772 12.8067 43.5538 13.6931 43.7395 14.9463C43.9253 16.1994 43.0274 17.3609 41.758 17.5443L33.9866 18.6446V29.1284L41.0768 28.1198C41.758 28.0281 42.4082 28.2115 42.9345 28.6699C43.4299 29.0978 43.7395 29.7397 43.7395 30.4121V40.0401H43.7705Z" fill="white"/>
</svg>
