<svg width="17" height="18" viewBox="0 0 17 18" fill="none" xmlns="http://www.w3.org/2000/svg">
<path d="M6.375 0.457496C6.47871 0.583522 6.54225 0.737754 6.5574 0.900264C6.57256 1.06277 6.53863 1.22609 6.46 1.36912C5.84572 2.49694 5.52493 3.76112 5.52712 5.04537C5.52712 9.31768 9.01 12.7772 13.3025 12.7772C13.8624 12.7772 14.4075 12.7187 14.9313 12.6072C15.0919 12.5724 15.2591 12.5857 15.4122 12.6454C15.5653 12.7051 15.6973 12.8086 15.7919 12.9429C15.8918 13.0826 15.9427 13.2513 15.9368 13.4229C15.9308 13.5945 15.8683 13.7593 15.759 13.8917C14.9257 14.9154 13.8744 15.7402 12.6818 16.3059C11.4893 16.8717 10.1855 17.1642 8.8655 17.1621C3.96737 17.1621 0 13.216 0 8.354C0 4.69475 2.24612 1.55612 5.44425 0.225871C5.60356 0.158543 5.78041 0.144724 5.94825 0.18649C6.11608 0.228257 6.26583 0.323354 6.375 0.457496Z" fill="#fff"/>
<path d="M11.4685 3.50698C11.4837 3.46096 11.5131 3.42092 11.5524 3.39254C11.5917 3.36417 11.6389 3.34889 11.6874 3.34889C11.7358 3.34889 11.7831 3.36417 11.8224 3.39254C11.8616 3.42092 11.891 3.46096 11.9062 3.50698L12.3174 4.7416C12.5012 5.29198 12.9326 5.72335 13.483 5.90716L14.7176 6.31835C14.7636 6.33359 14.8037 6.36294 14.832 6.40223C14.8604 6.44152 14.8757 6.48876 14.8757 6.53723C14.8757 6.5857 14.8604 6.63293 14.832 6.67222C14.8037 6.71152 14.7636 6.74086 14.7176 6.7561L13.483 7.16729C13.2115 7.25772 12.9649 7.41014 12.7626 7.61245C12.5603 7.81476 12.4079 8.06141 12.3174 8.33285L11.9062 9.56748C11.891 9.61349 11.8616 9.65353 11.8224 9.68191C11.7831 9.71029 11.7358 9.72556 11.6874 9.72556C11.6389 9.72556 11.5917 9.71029 11.5524 9.68191C11.5131 9.65353 11.4837 9.61349 11.4685 9.56748L11.0573 8.33285C10.9669 8.06141 10.8144 7.81476 10.6121 7.61245C10.4098 7.41014 10.1632 7.25772 9.89174 7.16729L8.65711 6.7561C8.6111 6.74086 8.57106 6.71152 8.54268 6.67222C8.5143 6.63293 8.49902 6.5857 8.49902 6.53723C8.49902 6.48876 8.5143 6.44152 8.54268 6.40223C8.57106 6.36294 8.6111 6.33359 8.65711 6.31835L9.89174 5.90716C10.1632 5.81673 10.4098 5.66431 10.6121 5.462C10.8144 5.25969 10.9669 5.01304 11.0573 4.7416L11.4685 3.50698ZM14.7293 0.267415C14.7398 0.237162 14.7594 0.210928 14.7855 0.192362C14.8116 0.173795 14.8428 0.163818 14.8749 0.163818C14.9069 0.163818 14.9381 0.173795 14.9642 0.192362C14.9903 0.210928 15.0099 0.237162 15.0204 0.267415L15.2945 1.08979C15.4167 1.45741 15.7047 1.74535 16.0723 1.86754L16.8947 2.14166C16.9249 2.15215 16.9512 2.17181 16.9697 2.1979C16.9883 2.22398 16.9983 2.25521 16.9983 2.28723C16.9983 2.31925 16.9883 2.35047 16.9697 2.37656C16.9512 2.40265 16.9249 2.4223 16.8947 2.43279L16.0723 2.70691C15.8911 2.76718 15.7265 2.86886 15.5915 3.00386C15.4565 3.13887 15.3548 3.3035 15.2945 3.48466L15.0204 4.30704C15.0099 4.33729 14.9903 4.36353 14.9642 4.38209C14.9381 4.40066 14.9069 4.41064 14.8749 4.41064C14.8428 4.41064 14.8116 4.40066 14.7855 4.38209C14.7594 4.36353 14.7398 4.33729 14.7293 4.30704L14.4552 3.48466C14.3949 3.3035 14.2932 3.13887 14.1582 3.00386C14.0232 2.86886 13.8586 2.76718 13.6774 2.70691L12.855 2.43279C12.8248 2.4223 12.7986 2.40265 12.78 2.37656C12.7614 2.35047 12.7514 2.31925 12.7514 2.28723C12.7514 2.25521 12.7614 2.22398 12.78 2.1979C12.7986 2.17181 12.8248 2.15215 12.855 2.14166L13.6774 1.86754C14.045 1.74535 14.333 1.45741 14.4552 1.08979L14.7293 0.268477V0.267415Z" fill="#fff"/>
</svg>
