<svg width="62" height="61" viewBox="0 0 62 61" fill="none" xmlns="http://www.w3.org/2000/svg">
<path d="M23.5024 20.5978H19.688V28.2266H23.5024C24.514 28.2266 25.4842 27.8247 26.1996 27.1094C26.9149 26.394 27.3168 25.4238 27.3168 24.4122C27.3168 23.4005 26.9149 22.4303 26.1996 21.715C25.4842 20.9997 24.514 20.5978 23.5024 20.5978Z" fill="white"/>
<path d="M43.9171 0H18.3759C7.2683 0 0.646484 6.62181 0.646484 17.7294V43.2706C0.646484 54.3782 7.2683 61 18.3759 61H43.9171C55.0247 61 61.6465 54.3782 61.6465 43.2706V17.7294C61.6465 6.62181 55.0247 0 43.9171 0ZM23.5024 32.8039H19.688V42.7214C19.688 43.9725 18.6505 45.01 17.3994 45.01C16.1482 45.01 15.1107 43.9725 15.1107 42.7214V18.3092C15.1107 17.058 16.1482 16.0205 17.3994 16.0205H23.5024C28.1407 16.0205 31.8941 19.7739 31.8941 24.4122C31.8941 29.0505 28.1407 32.8039 23.5024 32.8039ZM41.0487 32.8039C44.4054 32.8039 47.1517 35.5503 47.1517 38.907C47.1517 42.2636 44.4054 45.01 41.0487 45.01H37.2343C35.9832 45.01 34.9456 43.9725 34.9456 42.7214C34.9456 41.4702 35.9832 40.4327 37.2343 40.4327H41.0487C41.9031 40.4327 42.5744 39.7614 42.5744 38.907C42.5744 38.0525 41.9031 37.3812 41.0487 37.3812C37.692 37.3812 34.9456 34.6348 34.9456 31.2781C34.9456 27.9215 37.692 25.1751 41.0487 25.1751H44.8631C46.1142 25.1751 47.1517 26.2126 47.1517 27.4637C47.1517 28.7149 46.1142 29.7524 44.8631 29.7524H41.0487C40.1943 29.7524 39.5229 30.4237 39.5229 31.2781C39.5229 32.1326 40.1943 32.8039 41.0487 32.8039Z" fill="white"/>
</svg>
