<svg width="72" height="64" viewBox="0 0 72 64" fill="none" xmlns="http://www.w3.org/2000/svg">
<g clip-path="url(#clip0_11598_873)">
<path d="M35.9999 38.4115C39.5441 38.4115 42.4173 35.541 42.4173 32C42.4173 28.4591 39.5441 25.5886 35.9999 25.5886C32.4557 25.5886 29.5825 28.4591 29.5825 32C29.5825 35.541 32.4557 38.4115 35.9999 38.4115Z" fill="white"/>
<path d="M36 45.1356C55.0178 45.1356 70.4348 39.2546 70.4348 32C70.4348 24.7454 55.0178 18.8644 36 18.8644C16.9822 18.8644 1.56519 24.7454 1.56519 32C1.56519 39.2546 16.9822 45.1356 36 45.1356Z" stroke="white" stroke-width="3"/>
<path d="M24.6136 38.5678C34.1225 55.0224 46.9289 65.421 53.2174 61.7937C59.5059 58.1664 56.8952 41.8868 47.3863 25.4322C37.8774 8.97762 25.0711 -1.42095 18.7826 2.20635C12.4941 5.83364 15.1047 22.1132 24.6136 38.5678Z" stroke="white" stroke-width="3"/>
<path d="M24.6137 25.4322C15.1048 41.8868 12.4941 58.1664 18.7826 61.7937C25.0711 65.421 37.8775 55.0224 47.3864 38.5678C56.8953 22.1132 59.5059 5.83367 53.2174 2.20637C46.9289 -1.42092 34.1226 8.97765 24.6137 25.4322Z" stroke="white" stroke-width="3"/>
</g>
<defs>
<clipPath id="clip0_11598_873">
<rect width="72" height="64" fill="white"/>
</clipPath>
</defs>
</svg>
