<svg width="82" height="61" viewBox="0 0 82 61" fill="none" xmlns="http://www.w3.org/2000/svg">
<g clip-path="url(#clip0_11598_895)">
<path d="M70.5635 35.0607C67.7044 35.0755 65.2196 35.7589 63.1389 36.7691C62.3755 35.2686 61.612 33.9316 61.4773 32.9511C61.3276 31.8071 61.148 31.1089 61.3276 29.7421C61.5073 28.3753 62.3156 26.4291 62.3006 26.2806C62.2856 26.132 62.121 25.4338 60.4744 25.4189C58.8278 25.4041 57.4058 25.7309 57.2411 26.1617C57.0764 26.5926 56.7621 27.5731 56.5525 28.5833C56.2681 30.0689 53.2594 35.3726 51.5379 38.1508C50.9841 37.0663 50.5051 36.1155 50.4003 35.3578C50.2506 34.2138 50.071 33.5156 50.2506 32.1488C50.4302 30.782 51.2386 28.8359 51.2236 28.6873C51.2086 28.5387 51.044 27.8405 49.3974 27.8256C47.7508 27.8108 46.3287 28.1376 46.1641 28.5684C45.9994 28.9993 45.8198 30.0095 45.4755 30.99C45.1312 31.9705 41.1345 40.8249 40.0867 43.1128C39.5478 44.2864 39.0837 45.2224 38.7544 45.8612C38.7544 45.8612 38.7395 45.9058 38.6946 45.98C38.4101 46.5297 38.2455 46.8268 38.2455 46.8268C38.2455 46.8268 38.2455 46.8268 38.2455 46.8417C38.021 47.2428 37.7814 47.6142 37.6617 47.6142C37.5719 47.6142 37.4072 46.5446 37.6916 45.0887C38.2904 42.0134 39.7124 37.2297 39.6975 37.0663C39.6975 36.9771 39.9669 36.1452 38.7694 35.7143C37.6018 35.2835 37.1827 35.9966 37.0779 35.9966C36.9731 35.9966 36.8983 36.2492 36.8983 36.2492C36.8983 36.2492 38.2006 30.8712 34.4134 30.8712C32.0483 30.8712 28.7851 33.4413 27.1684 35.7589C26.1506 36.3086 23.9801 37.4822 21.6599 38.745C20.7767 39.2353 19.8636 39.7255 19.0104 40.1861C18.9505 40.1267 18.8906 40.0524 18.8307 39.9929C14.2502 35.1349 5.7778 31.7031 6.13705 25.1812C6.27177 22.8042 7.09506 16.5646 22.4083 8.98783C35.0122 2.82247 45.0414 4.53094 46.7778 8.3193C49.2626 13.727 41.4039 23.7699 28.3809 25.2258C23.4112 25.7755 20.8066 23.8739 20.148 23.1608C19.4594 22.4179 19.3546 22.3734 19.1002 22.5219C18.681 22.7448 18.9505 23.4133 19.1002 23.7996C19.4894 24.8098 21.091 26.5926 23.8004 27.4691C26.1955 28.2416 32.0184 28.6724 39.0688 25.9686C46.9574 22.9379 53.1246 14.5144 51.3134 7.45763C49.5021 0.296894 37.527 -2.06526 26.1955 1.93109C19.4594 4.3081 12.1546 8.05189 6.90047 12.9248C0.658408 18.7187 -0.329543 23.755 0.0746192 25.8646C1.52661 33.3522 11.93 38.225 16.0914 41.8351C15.8818 41.954 15.6873 42.058 15.5226 42.1471C13.4419 43.1722 5.50835 47.2874 3.53245 51.6403C1.28711 56.5726 3.89171 60.1084 5.61314 60.5838C10.9571 62.0546 16.4507 59.4101 19.3996 55.0424C22.3484 50.6746 21.9892 44.9995 20.627 42.3997C20.612 42.37 20.5971 42.3402 20.5671 42.3105C21.106 41.9985 21.6599 41.6717 22.1988 41.3597C23.2615 40.7358 24.3094 40.1564 25.2075 39.681C24.6986 41.0626 24.3243 42.7117 24.1447 45.0887C23.9202 47.8816 25.0728 51.5066 26.5847 52.9328C27.2583 53.5568 28.0516 53.5716 28.5606 53.5716C30.3269 53.5716 31.1203 52.1157 32.0034 50.3924C33.0812 48.2828 34.0542 45.8315 34.0542 45.8315C34.0542 45.8315 32.8417 52.4574 36.1349 52.4574C37.3324 52.4574 38.5449 50.9123 39.0837 50.1249C39.0837 50.1398 39.0837 50.1398 39.0837 50.1398C39.0837 50.1398 39.1137 50.0952 39.1736 49.9912C39.2933 49.7981 39.3682 49.6793 39.3682 49.6793C39.3682 49.6793 39.3682 49.6644 39.3682 49.6495C39.8472 48.8176 40.9249 46.9308 42.5266 43.7962C44.5923 39.7552 46.5832 34.7041 46.5832 34.7041C46.5832 34.7041 46.7628 35.9372 47.3766 37.9873C47.7358 39.1907 48.4843 40.5129 49.083 41.7906C48.604 42.4591 48.3046 42.8305 48.3046 42.8305C48.3046 42.8305 48.3046 42.8305 48.3196 42.8454C47.9304 43.3505 47.5113 43.9002 47.0472 44.435C45.4156 46.3663 43.4697 48.5799 43.2002 49.2187C42.8859 49.9764 42.9607 50.5261 43.5595 50.9718C43.9936 51.2986 44.772 51.3432 45.5653 51.2986C47.0323 51.1946 48.0651 50.8381 48.5741 50.6152C49.3674 50.3329 50.2955 49.9021 51.1637 49.2633C52.7654 48.0896 53.7384 46.4109 53.6486 44.1973C53.6036 42.9791 53.1995 41.7608 52.7055 40.6169C52.8552 40.4089 52.9899 40.2009 53.1396 39.9929C55.6694 36.3234 57.6303 32.2974 57.6303 32.2974C57.6303 32.2974 57.8099 33.5305 58.4237 35.5806C58.723 36.6206 59.3368 37.7496 59.8756 38.849C57.4956 40.7655 56.0286 42.9939 55.5047 44.4498C54.5617 47.1537 55.2951 48.3719 56.6873 48.6542C57.316 48.7879 58.2141 48.4908 58.8727 48.2085C59.711 47.9411 60.6989 47.4805 61.642 46.7971C63.2437 45.6235 64.7855 43.9893 64.6957 41.7757C64.6507 40.7655 64.3813 39.7701 64.0071 38.8044C66.0279 37.9725 68.6325 37.5119 71.9556 37.8982C79.0808 38.7302 80.4879 43.1425 80.2185 44.9995C79.949 46.8566 78.4521 47.8668 77.9582 48.1788C77.4642 48.4908 77.2995 48.5947 77.3444 48.8176C77.4043 49.1444 77.6438 49.1296 78.0629 49.0701C78.6467 48.9662 81.8052 47.5697 81.9399 44.1527C82.1644 39.785 77.9731 35.0161 70.5635 35.0607ZM15.5974 53.4528C13.2323 56.008 9.93917 56.9737 8.51712 56.1566C6.99028 55.2801 7.58904 51.5066 10.493 48.8027C12.2594 47.1537 14.5346 45.6235 16.0465 44.6875C16.3908 44.4795 16.8997 44.1824 17.5135 43.811C17.6182 43.7516 17.6781 43.7219 17.6781 43.7219C17.7979 43.6476 17.9176 43.5733 18.0374 43.499C19.1002 47.3617 18.0823 50.7638 15.5974 53.4528ZM32.8117 41.8351C31.9885 43.8259 30.267 48.9216 29.2192 48.6393C28.3211 48.4016 27.7672 44.539 29.0396 40.7209C29.6832 38.8044 31.0454 36.5166 31.8388 35.6252C33.1261 34.199 34.5482 33.7236 34.8924 34.303C35.3265 35.0607 33.3207 40.5872 32.8117 41.8351ZM47.0173 48.5799C46.673 48.7582 46.3437 48.877 46.194 48.7879C46.0892 48.7285 46.3437 48.4908 46.3437 48.4908C46.3437 48.4908 48.125 46.5891 48.8285 45.7275C49.2327 45.2224 49.7117 44.6281 50.2207 43.9596C50.2207 44.019 50.2207 44.0933 50.2207 44.1527C50.2207 46.4257 48.0053 47.9559 47.0173 48.5799ZM57.9746 46.0989C57.7201 45.9206 57.765 45.3264 58.6183 43.4693C58.9476 42.7414 59.726 41.5231 61.0582 40.3495C61.2079 40.8249 61.3127 41.2854 61.2977 41.7163C61.2827 44.5835 59.217 45.6532 57.9746 46.0989Z" fill="white"/>
</g>
<defs>
<clipPath id="clip0_11598_895">
<rect width="82" height="61" fill="white"/>
</clipPath>
</defs>
</svg>
