<svg width="61" height="61" viewBox="0 0 61 61" fill="none" xmlns="http://www.w3.org/2000/svg">
<path d="M48.1635 29.1771C48.1635 25.9441 47.0007 23.7062 46.0056 21.9639L45.7006 21.4682C44.492 19.5239 43.436 17.8159 43.436 15.8257C43.436 13.4239 45.2584 11.1821 47.828 11.1821C47.9042 11.1821 47.9767 11.1897 48.0491 11.1935L48.1673 11.205C43.3489 6.7792 37.0426 4.32691 30.5002 4.33486C26.1641 4.33263 21.8956 5.4093 18.0793 7.46786C14.263 9.52641 11.0189 12.5021 8.6393 16.1269C9.2493 16.146 9.83261 16.1612 10.3244 16.1612C13.058 16.1612 17.2937 15.8295 17.2937 15.8295C18.7043 15.7457 18.872 17.8159 17.4614 17.9836C17.4614 17.9836 16.047 18.1514 14.4686 18.2314L23.9999 46.5735L29.7186 29.3944L25.6392 18.2276C24.2324 18.1437 22.898 17.9798 22.898 17.9798C21.4874 17.8959 21.6552 15.738 23.062 15.8219C23.062 15.8219 27.3854 16.1536 29.955 16.1536C32.6924 16.1536 36.9319 15.8219 36.9319 15.8219C38.3425 15.738 38.5064 17.812 37.0958 17.9798C37.0958 17.9798 35.6775 18.1437 34.103 18.2276L43.558 46.3524L46.1657 37.6332L46.3716 36.9737C47.401 33.6949 48.1597 31.274 48.1597 29.1733L48.1635 29.1771ZM4.33498 30.5C4.33472 35.4134 5.71769 40.2275 8.32564 44.3916C10.9336 48.5557 14.6611 51.9015 19.0817 54.046L6.5958 19.8479C5.10065 23.1999 4.33024 26.8298 4.33498 30.5Z" fill="white"/>
<path d="M23.1074 55.5977L30.9612 32.7875L39.0017 54.8237C39.0551 54.9496 39.1161 55.0677 39.1885 55.1821C34.0052 57.0082 28.3781 57.1536 23.1074 55.5977ZM53.4549 17.9454C53.5693 18.7804 53.6341 19.6725 53.6341 20.6371C53.6341 23.2906 53.1385 26.2757 51.644 30.0082L43.653 53.1119C49.5498 49.6859 53.8751 44.0919 55.7069 37.5227C57.5387 30.9534 56.7319 23.9285 53.4587 17.9454H53.4549Z" fill="white"/>
<path fill-rule="evenodd" clip-rule="evenodd" d="M0 30.5C0 13.6831 13.6831 0 30.5 0C47.3131 0 61 13.6831 61 30.5C61 47.3169 47.3131 61 30.5 61C13.6831 61 0 47.3169 0 30.5ZM1.39919 30.5C1.39919 46.5468 14.4532 59.6008 30.5 59.6008C46.543 59.6008 59.597 46.5468 59.597 30.5C59.597 14.4494 46.543 1.39919 30.5 1.39919C14.4494 1.39919 1.39919 14.4494 1.39919 30.5Z" fill="white"/>
</svg>
