<svg width="62" height="61" viewBox="0 0 62 61" fill="none" xmlns="http://www.w3.org/2000/svg">
<path d="M40.8047 35.9225C40.8047 37.6314 42.2084 39.0351 43.9172 39.0351H47.0298V32.8405H43.9172C43.5099 32.8365 43.1059 32.9132 42.7284 33.0663C42.351 33.2194 42.0076 33.4457 41.7182 33.7323C41.4287 34.0189 41.199 34.3601 41.0422 34.736C40.8854 35.1119 40.8047 35.5152 40.8047 35.9225Z" fill="white"/>
<path d="M43.9171 0H18.3759C7.2683 0 0.646484 6.62181 0.646484 17.7294V43.2706C0.646484 54.3782 7.2683 61 18.3759 61H43.9171C55.0247 61 61.6465 54.3782 61.6465 43.2706V17.7294C61.6465 6.62181 55.0247 0 43.9171 0ZM31.9857 39.8529C32.779 40.8294 32.6265 42.2942 31.6195 43.057C31.1923 43.3927 30.704 43.5453 30.1853 43.5453C29.5139 43.5453 28.8426 43.2401 28.3849 42.6908L21.5494 34.1466L14.714 42.6908C14.3296 43.1624 13.7759 43.4647 13.1713 43.5332C12.5668 43.6016 11.9595 43.4307 11.4794 43.057C11.0064 42.6804 10.7023 42.1314 10.6336 41.5307C10.5649 40.93 10.7374 40.3266 11.1132 39.8529L18.5895 30.5153L11.1132 21.1776C10.3198 20.2011 10.4724 18.7364 11.4794 17.9735C12.4559 17.1801 13.9206 17.3327 14.6835 18.3397L21.5189 26.8839L28.3543 18.3397C28.74 17.8955 29.2822 17.6174 29.8679 17.5633C30.4537 17.5092 31.0377 17.6833 31.4981 18.0494C31.9586 18.4154 32.26 18.945 32.3395 19.5278C32.4189 20.1107 32.2703 20.7017 31.9246 21.1776L24.4484 30.5153L31.9857 39.8529ZM51.607 41.2871C51.607 42.5383 50.5694 43.5758 49.3183 43.5758H43.9171C39.6755 43.5758 36.2273 40.1276 36.2273 35.8859C36.2273 31.6443 39.6755 28.1961 43.9171 28.1961H47.0297V19.7129C47.0297 18.4617 48.0672 17.4242 49.3183 17.4242C50.5694 17.4242 51.607 18.4617 51.607 19.7129V41.2871Z" fill="white"/>
</svg>
