<svg width="224" height="82" viewBox="0 0 224 82" fill="none" xmlns="http://www.w3.org/2000/svg">
<g clip-path="url(#clip0_11132_2579)">
<path d="M2.88623 1.12737L5.84287 3.56713V14.5112H21.7524L23.9346 17.2298L21.7524 19.809H5.84287V30.2651L2.88623 32.7048L0 30.2651V3.56713L2.88623 1.12737ZM11.4745 28.7315H23.653L25.6945 31.3107L23.5123 34.0293H11.4745L9.50346 31.5198L11.4745 28.7315ZM11.8969 0.5H23.5123L25.6945 3.21859L23.5123 5.79776H12.0377L9.71464 3.2883L11.8969 0.5ZM76.5204 5.72806L79.1251 8.51635L76.5204 11.3046H37.2395L34.7052 8.51635L37.2395 5.72806H76.5204ZM32.6637 17.2298L35.1276 15.1386L37.5915 17.2298V20.2969C37.5915 25.4553 38.9994 29.6377 45.2646 29.6377H46.4613C52.093 29.6377 55.1904 25.8735 55.1904 20.0878V17.1601L57.5839 15.0688L60.0478 17.0904V20.2969C60.0478 25.525 61.5965 29.3589 67.6505 29.3589H68.7065C74.6197 29.3589 75.6757 24.8976 75.7461 20.0181V16.8812L78.1395 14.9294L80.6738 16.9509V20.0878C80.6034 26.8494 78.7731 34.5172 68.9881 34.5172H67.9321C62.0893 34.5172 58.9214 31.938 57.7247 28.7315C56.2464 32.0077 52.3042 34.8657 47.0245 34.8657H45.7574C35.6908 34.8657 32.9453 28.8012 32.8749 20.3666V17.2298H32.6637ZM52.7266 67.4888L51.3187 63.7246L54.9793 62.679L67.7913 68.4647V56.6145L70.396 54.4535L73.071 56.6145V70.9742L77.8579 73.1351L79.1955 76.6205L75.4645 77.9449L52.7266 67.4888ZM75.5349 42.185L79.0547 43.7883L77.9283 47.3434L46.3909 61.7728L42.5896 60.309L44.1383 56.6842L75.5349 42.185ZM29.9887 61.9122L33.0861 64.4217C32.8045 73.2745 25.2018 77.8752 16.1207 77.8752H15.2055C10.7002 77.8752 5.49089 76.2022 2.11188 72.9957L2.46386 69.5103L5.77247 69.0921C8.23633 71.1833 11.6857 72.6472 14.8536 72.6472H15.8391C21.9635 72.6472 26.6097 70.1377 27.1025 64.2126L29.9887 61.9122ZM27.1728 56.1962C26.8913 50.062 22.2451 47.6919 15.9095 47.6919H14.9239C11.1226 47.6919 8.23633 49.1558 5.84287 51.247L2.53426 50.8287L2.11188 47.204C5.49089 43.9277 10.2074 42.3941 15.0647 42.3941H16.0503C25.1314 42.3941 32.8045 46.9948 33.0861 55.9174L29.9887 58.3571L27.1728 56.1962Z" fill="white"/>
<path d="M109.959 11.0258H102.637C102.778 12.42 103.764 13.4656 105.242 13.4656C106.157 13.4656 106.932 13.117 107.424 12.42L109.747 12.4897C108.903 14.3021 107.213 15.278 105.242 15.278C102.497 15.278 100.455 13.2565 100.455 10.3984C100.455 7.61015 102.426 5.58864 105.172 5.58864C107.706 5.58864 109.959 7.26162 109.959 11.0258ZM102.637 9.56196H107.635C107.565 8.37693 106.58 7.33132 105.242 7.33132C103.834 7.33132 102.919 8.23752 102.637 9.56196Z" fill="white"/>
<path d="M117.491 8.30723C116.787 7.61016 115.731 7.33133 115.098 7.33133C114.323 7.33133 113.901 7.74957 113.901 8.16781C113.901 8.65577 114.112 8.9346 114.746 9.14372L116.365 9.70138C118.125 10.259 118.829 11.2349 118.829 12.3503C118.829 13.8141 117.702 15.2083 115.379 15.2083C113.83 15.2083 112.352 14.5809 111.437 13.7444L112.634 12.2108C113.338 12.9079 114.394 13.3959 115.309 13.3959C116.154 13.3959 116.646 13.0473 116.646 12.4897C116.646 11.932 116.365 11.6532 115.309 11.3046L113.76 10.747C112.493 10.3287 111.719 9.35284 111.719 8.16781C111.719 6.84337 112.915 5.44923 115.098 5.44923C116.154 5.44923 117.632 5.86747 118.617 6.77367L117.491 8.30723Z" fill="white"/>
<path d="M125.446 13.4656C126.502 13.4656 127.347 12.9776 127.839 12.1411L129.529 13.0473C128.754 14.4415 127.135 15.278 125.375 15.278C122.63 15.278 120.448 13.2565 120.448 10.4682C120.448 7.61015 122.63 5.58864 125.375 5.58864C127.135 5.58864 128.754 6.42513 129.529 7.81927L127.769 8.72547C127.276 7.88898 126.502 7.40103 125.375 7.40103C123.686 7.40103 122.56 8.72547 122.56 10.4682C122.56 12.2108 123.756 13.4656 125.446 13.4656Z" fill="white"/>
<path d="M136.005 5.58864C138.75 5.58864 140.933 7.61015 140.933 10.3984C140.933 13.1867 138.68 15.278 136.005 15.278C133.259 15.278 131.077 13.2565 131.077 10.3984C131.077 7.61015 133.259 5.58864 136.005 5.58864ZM136.005 7.33132C134.315 7.33132 133.119 8.65576 133.119 10.3984C133.119 12.1411 134.315 13.4656 136.005 13.4656C137.694 13.4656 138.891 12.1411 138.891 10.3984C138.891 8.65576 137.694 7.33132 136.005 7.33132Z" fill="white"/>
<path d="M145.438 0.778831H143.396V15.0688H145.438V0.778831Z" fill="white"/>
<path d="M153.745 8.86489C153.745 7.88898 152.971 7.40103 151.844 7.40103C150.859 7.40103 149.944 7.81928 149.24 8.37693L148.254 6.84337C149.028 6.1463 150.366 5.58864 151.985 5.58864C154.449 5.58864 155.857 6.91308 155.857 8.86489V14.9991H153.815V14.0232C153.252 14.8597 152.126 15.2083 151.14 15.2083C149.028 15.2083 147.761 14.0232 147.761 12.2805C147.761 10.4682 149.028 9.49225 151.14 9.49225H153.111C153.604 9.49225 153.745 9.28313 153.745 8.93459V8.86489ZM153.745 11.6532V10.8864C153.534 11.0258 153.252 11.0955 152.759 11.0955H151.492C150.436 11.0955 149.873 11.5835 149.873 12.3503C149.873 13.0473 150.436 13.7444 151.492 13.7444C152.689 13.6747 153.745 13.0473 153.745 11.6532Z" fill="white"/>
<path d="M103.13 35.8417H101.089V21.5516H103.13V27.9647C103.623 27.0585 104.89 26.3614 106.298 26.3614C108.973 26.3614 110.944 28.383 110.944 31.1713C110.944 33.9596 108.973 36.0508 106.228 36.0508C104.89 36.0508 103.623 35.4234 103.13 34.5172V35.8417ZM103.06 31.241C103.06 32.9836 104.257 34.3081 105.946 34.3081C107.636 34.3081 108.832 32.9836 108.832 31.241C108.832 29.4983 107.636 28.1738 105.946 28.1738C104.257 28.1738 103.06 29.4983 103.06 31.241Z" fill="white"/>
<path d="M118.617 28.4527H117.561C116.224 28.4527 115.379 29.2195 115.379 31.3107V35.8417H113.337V26.6403H115.308V28.1041C115.66 27.0585 116.576 26.5009 117.913 26.5009C118.124 26.5009 118.406 26.5009 118.617 26.5706V28.4527Z" fill="white"/>
<path d="M123.123 35.8417H121.081V28.3133H119.673V26.6403H123.123V35.8417ZM121.996 21.9002C122.771 21.9002 123.475 22.5275 123.475 23.364C123.475 24.1308 122.841 24.7582 121.996 24.7582C121.222 24.7582 120.588 24.1308 120.588 23.364C120.588 22.5275 121.222 21.9002 121.996 21.9002Z" fill="white"/>
<path d="M128.754 22.9458V26.6403H130.937V28.3133H128.754V33.4716C128.754 34.099 129.247 34.2384 129.669 34.2384C130.373 34.2384 130.937 34.1687 130.937 34.1687V35.8417C130.937 35.8417 129.951 35.9114 129.177 35.9114C128.05 35.9114 126.713 35.7022 126.713 33.8898V28.3133H125.164V26.6403H126.713V22.9458H128.754Z" fill="white"/>
<path d="M138.539 29.6377C138.539 28.6618 137.765 28.1738 136.639 28.1738C135.653 28.1738 134.738 28.5921 134.034 29.1497L133.048 27.6162C133.823 26.9191 135.16 26.3614 136.779 26.3614C139.243 26.3614 140.651 27.6859 140.651 29.6377V35.7719H138.61V34.796C138.047 35.6325 136.92 35.9811 135.935 35.9811C133.823 35.9811 132.556 34.796 132.556 33.0534C132.556 31.241 133.823 30.2651 135.935 30.2651H137.906C138.399 30.2651 138.539 30.0559 138.539 29.7074V29.6377ZM135.653 21.5516H138.047L140.018 24.9673H137.906L136.85 23.0852L135.794 24.9673H133.682L135.653 21.5516ZM138.539 32.4957V31.7289C138.328 31.8683 138.047 31.938 137.554 31.938H136.287C135.231 31.938 134.668 32.426 134.668 33.1928C134.668 33.8898 135.231 34.5869 136.287 34.5869C137.483 34.5172 138.539 33.8898 138.539 32.4957Z" fill="white"/>
<path d="M145.509 27.1979C145.509 27.4768 145.509 27.6162 145.509 27.8253C146.283 26.9191 147.339 26.4312 148.536 26.4312C150.718 26.4312 151.985 27.7556 151.985 29.8468V35.8417H149.944V30.1256C149.944 28.8012 149.169 28.2435 148.113 28.2435C147.198 28.2435 146.353 28.6618 145.579 29.568V35.8417H143.538V26.6403H145.509V27.1979Z" fill="white"/>
<path d="M157.335 35.8417H155.294V28.3133H153.886V26.6403H157.335V35.8417ZM156.138 21.9002C156.913 21.9002 157.617 22.5275 157.617 23.364C157.617 24.1308 156.983 24.7582 156.138 24.7582C155.364 24.7582 154.73 24.1308 154.73 23.364C154.73 22.5275 155.364 21.9002 156.138 21.9002Z" fill="white"/>
<path d="M164.586 34.3081C165.642 34.3081 166.487 33.8201 166.979 32.9836L168.739 33.8898C167.965 35.284 166.346 36.1205 164.586 36.1205C161.84 36.1205 159.658 34.099 159.658 31.3107C159.658 28.4527 161.84 26.4312 164.586 26.4312C166.346 26.4312 167.965 27.2676 168.739 28.6618L166.979 29.568C166.487 28.7315 165.712 28.2435 164.586 28.2435C162.896 28.2435 161.77 29.568 161.77 31.3107C161.77 33.0534 162.896 34.3081 164.586 34.3081Z" fill="white"/>
<path d="M176.201 29.6377C176.201 28.6618 175.427 28.1738 174.3 28.1738C173.315 28.1738 172.4 28.5921 171.696 29.1497L170.71 27.6162C171.484 26.9191 172.822 26.3615 174.441 26.3615C176.905 26.3615 178.313 27.6859 178.313 29.6377V35.7719H176.271V34.796C175.708 35.6325 174.582 35.9811 173.596 35.9811C171.484 35.9811 170.217 34.796 170.217 33.0534C170.217 31.241 171.484 30.2651 173.596 30.2651H175.567C176.06 30.2651 176.201 30.0559 176.201 29.7074V29.6377ZM176.201 32.4957V31.7289C175.99 31.8683 175.708 31.938 175.215 31.938H173.948C172.892 31.938 172.329 32.426 172.329 33.1928C172.329 33.8899 172.892 34.5869 173.948 34.5869C175.145 34.5172 176.201 33.8899 176.201 32.4957Z" fill="white"/>
<path d="M193.166 34.5172C192.674 35.4234 191.407 36.1205 190.069 36.1205C187.394 36.1205 185.423 34.099 185.423 31.241C185.423 28.4527 187.324 26.4312 190.069 26.4312C191.477 26.4312 192.744 27.1282 193.237 28.0344C193.237 27.4071 193.237 26.6403 193.237 25.9432V21.6213H195.278V35.9114H193.237V34.5172H193.166ZM187.535 31.241C187.535 32.9837 188.731 34.3081 190.421 34.3081C192.11 34.3081 193.307 32.9837 193.307 31.241C193.307 29.4983 192.11 28.1738 190.421 28.1738C188.661 28.1738 187.535 29.4983 187.535 31.241Z" fill="white"/>
<path d="M207.105 31.8683H199.784C199.925 33.2625 200.91 34.3081 202.388 34.3081C203.304 34.3081 204.078 33.9596 204.571 33.2625L206.894 33.3322C206.049 35.1446 204.36 36.1205 202.388 36.1205C199.643 36.1205 197.602 34.099 197.602 31.241C197.602 28.4527 199.573 26.4312 202.318 26.4312C204.852 26.4312 207.105 28.0344 207.105 31.8683ZM199.784 30.4045H204.782C204.712 29.2194 203.726 28.1738 202.388 28.1738C200.981 28.1738 200.065 29.08 199.784 30.4045Z" fill="white"/>
<path d="M106.368 50.4802C106.368 49.5043 105.594 49.0164 104.468 49.0164C103.482 49.0164 102.567 49.4346 101.863 49.9923L100.878 48.4587C101.652 47.7616 102.989 47.204 104.609 47.204C107.072 47.204 108.48 48.5284 108.48 50.4802V56.6145H106.439V55.6386C105.876 56.475 104.749 56.8236 103.764 56.8236C101.652 56.8236 100.385 55.6386 100.385 53.8959C100.385 52.0835 101.652 51.1076 103.764 51.1076H105.735C106.228 51.1076 106.368 50.8985 106.368 50.5499V50.4802ZM106.368 53.2685V52.5017C106.157 52.6411 105.876 52.7109 105.383 52.7109H104.116C103.06 52.7109 102.497 53.1988 102.497 53.9656C102.497 54.6627 103.06 55.3597 104.116 55.3597C105.242 55.29 106.368 54.7324 106.368 53.2685Z" fill="white"/>
<path d="M116.576 49.2952H115.52C114.182 49.2952 113.337 50.062 113.337 52.1532V56.6842H111.296V47.4828H113.267V48.9466C113.619 47.901 114.534 47.3434 115.872 47.3434C116.083 47.3434 116.364 47.3434 116.576 47.4131V49.2952Z" fill="white"/>
<path d="M121.292 43.7883V47.4828H123.475V49.1558H121.292V54.3141C121.292 54.9415 121.785 55.0809 122.207 55.0809C122.911 55.0809 123.475 55.0112 123.475 55.0112V56.6842C123.475 56.6842 122.489 56.7539 121.715 56.7539C120.588 56.7539 119.251 56.5448 119.251 54.7324V49.1558H117.702V47.4828H119.251V43.7883H121.292Z" fill="white"/>
<path d="M134.668 52.7108H127.346C127.487 54.105 128.473 55.1506 129.951 55.1506C130.866 55.1506 131.64 54.8021 132.133 54.105L134.456 54.1747C133.612 55.9871 131.922 56.963 129.951 56.963C127.206 56.963 125.164 54.9415 125.164 52.0835C125.164 49.2952 127.135 47.2737 129.881 47.2737C132.415 47.204 134.668 48.8769 134.668 52.7108ZM127.346 51.1773H132.344C132.274 49.9923 131.289 48.9466 129.951 48.9466C128.543 49.0163 127.628 49.9225 127.346 51.1773Z" fill="white"/>
<path d="M142.2 49.9923C141.496 49.2952 140.44 49.0164 139.807 49.0164C139.032 49.0164 138.61 49.4346 138.61 49.8528C138.61 50.3408 138.821 50.6196 139.455 50.8287L141.074 51.3864C142.834 51.9441 143.538 52.92 143.538 54.0353C143.538 55.4991 142.411 56.8933 140.088 56.8933C138.539 56.8933 137.061 56.2659 136.146 55.4294L137.343 53.8959C138.047 54.5929 139.103 55.0809 140.018 55.0809C140.863 55.0809 141.355 54.7324 141.355 54.1747C141.355 53.617 141.074 53.3382 140.018 52.9897L138.469 52.432C137.202 52.0138 136.428 51.0379 136.428 49.8528C136.428 48.5284 137.624 47.1343 139.807 47.1343C140.863 47.1343 142.341 47.5525 143.326 48.4587L142.2 49.9923Z" fill="white"/>
<path d="M154.941 55.1506C155.997 55.1506 156.842 54.6627 157.335 53.8262L159.095 54.7324C158.32 56.1265 156.701 56.963 154.941 56.963C152.196 56.963 150.014 54.9415 150.014 52.1532C150.014 49.2952 152.196 47.2737 154.941 47.2737C156.701 47.2737 158.32 48.1102 159.095 49.5043L157.335 50.4105C156.842 49.574 156.068 49.0861 154.941 49.0861C153.252 49.0861 152.126 50.4105 152.126 52.1532C152.126 53.8959 153.252 55.1506 154.941 55.1506Z" fill="white"/>
<path d="M166.627 49.2952H165.571C164.234 49.2952 163.389 50.062 163.389 52.1532V56.6842H161.348V47.4828H163.319V48.9466C163.671 47.901 164.586 47.3434 165.923 47.3434C166.135 47.3434 166.416 47.3434 166.627 47.4131V49.2952Z" fill="white"/>
<path d="M171.203 56.6842H169.161V49.1558H167.753V47.4828H171.203V56.6842ZM170.076 42.7427C170.851 42.7427 171.555 43.3701 171.555 44.2065C171.555 44.9733 170.921 45.6007 170.076 45.6007C169.302 45.6007 168.669 44.9733 168.669 44.2065C168.598 43.3701 169.232 42.7427 170.076 42.7427Z" fill="white"/>
<path d="M179.439 50.4802C179.439 49.5043 178.665 49.0164 177.539 49.0164C176.553 49.0164 175.638 49.4346 174.934 49.9923L173.948 48.4587C174.723 47.7616 176.06 47.204 177.679 47.204C180.143 47.204 181.551 48.5284 181.551 50.4802V56.6145H179.51V55.6386C178.946 56.475 177.82 56.8236 176.835 56.8236C174.723 56.8236 173.456 55.6386 173.456 53.8959C173.456 52.0835 174.723 51.1076 176.835 51.1076H178.806C179.298 51.1076 179.439 50.8985 179.439 50.5499V50.4802ZM179.439 53.2685V52.5017C179.228 52.6411 178.946 52.7109 178.454 52.7109H177.187C176.131 52.7109 175.567 53.1988 175.567 53.9656C175.567 54.6627 176.131 55.3597 177.187 55.3597C178.383 55.29 179.439 54.7324 179.439 53.2685Z" fill="white"/>
<path d="M187.042 43.7883V47.4828H189.225V49.1558H187.042V54.3141C187.042 54.9415 187.535 55.0809 187.957 55.0809C188.661 55.0809 189.225 55.0112 189.225 55.0112V56.6842C189.225 56.6842 188.239 56.7539 187.465 56.7539C186.338 56.7539 185.001 56.5448 185.001 54.7324V49.1558H183.452V47.4828H185.001V43.7883H187.042Z" fill="white"/>
<path d="M194.011 56.6842H191.97V49.1558H190.562V47.4828H194.011V56.6842ZM192.815 42.7427C193.589 42.7427 194.293 43.3701 194.293 44.2065C194.293 44.9733 193.659 45.6007 192.815 45.6007C192.04 45.6007 191.407 44.9733 191.407 44.2065C191.407 43.3701 192.04 42.7427 192.815 42.7427Z" fill="white"/>
<path d="M200.699 54.7324L203.233 47.4828H205.415L201.966 56.6842H199.361L196.123 47.4828H198.376L200.699 54.7324Z" fill="white"/>
<path d="M212.455 50.4802C212.455 49.5043 211.681 49.0164 210.554 49.0164C209.569 49.0164 208.653 49.4346 207.95 49.9923L206.964 48.4587C207.738 47.7616 209.076 47.204 210.695 47.204C213.159 47.204 214.567 48.5284 214.567 50.4802V56.6145H212.525V55.6386C211.962 56.475 210.836 56.8236 209.85 56.8236C207.738 56.8236 206.471 55.6386 206.471 53.8959C206.471 52.0835 207.738 51.1076 209.85 51.1076H211.821C212.314 51.1076 212.455 50.8985 212.455 50.5499V50.4802ZM212.455 53.2685V52.5017C212.244 52.6411 211.962 52.7109 211.469 52.7109H210.202C209.146 52.7109 208.583 53.1988 208.583 53.9656C208.583 54.6627 209.146 55.3597 210.202 55.3597C211.399 55.29 212.455 54.7324 212.455 53.2685Z" fill="white"/>
<path d="M222.733 49.9923C222.029 49.2952 220.973 49.0164 220.339 49.0164C219.565 49.0164 219.143 49.4346 219.143 49.8528C219.143 50.3408 219.354 50.6196 219.987 50.8287L221.606 51.3864C223.366 51.9441 224.07 52.92 224.07 54.0353C224.07 55.4991 222.944 56.8933 220.621 56.8933C219.072 56.8933 217.594 56.2659 216.679 55.4294L217.875 53.8959C218.579 54.5929 219.635 55.0809 220.55 55.0809C221.395 55.0809 221.888 54.7324 221.888 54.1747C221.888 53.617 221.606 53.3382 220.55 52.9897L219.002 52.432C217.735 52.0138 216.96 51.0379 216.96 49.8528C216.96 48.5284 218.157 47.1343 220.339 47.1343C221.395 47.1343 222.874 47.5525 223.859 48.4587L222.733 49.9923Z" fill="white"/>
<path d="M112.985 77.457H110.24L108.691 75.784C107.776 77.0387 106.509 77.6661 104.749 77.6661C102.215 77.6661 100.525 75.8537 100.525 73.7625C100.525 72.0895 101.441 70.7651 102.989 69.5103C102.004 68.3253 101.722 67.4888 101.722 66.5129C101.722 64.1429 103.623 62.9578 105.594 62.9578C107.424 62.9578 109.184 64.0035 109.184 66.1644C109.184 66.722 109.043 67.3494 108.691 67.9071L106.931 67.5585C107.143 67.0706 107.283 66.6523 107.283 66.3735C107.283 65.3976 106.579 64.7702 105.664 64.7702C104.538 64.7702 103.904 65.537 103.904 66.5129C103.904 67.2797 104.256 67.9768 105.172 68.9527C106.439 70.3468 108.339 72.438 108.621 72.6472C109.184 71.6713 109.677 70.5559 109.958 69.7892H112.282C111.648 71.3924 110.803 72.926 110.099 74.111L113.197 77.3176V77.457H112.985ZM104.186 70.9742C103.13 72.0895 102.708 72.7866 102.708 73.8322C102.708 75.0869 103.764 75.9234 104.89 75.9234C105.805 75.9234 106.791 75.4355 107.354 74.4596L104.186 70.9742Z" fill="white"/>
<path d="M122.419 64.6308V68.3253H124.601V69.9983H122.419V75.1566C122.419 75.784 122.912 75.9234 123.334 75.9234C124.038 75.9234 124.601 75.8537 124.601 75.8537V77.5267C124.601 77.5267 123.616 77.5964 122.841 77.5964C121.715 77.5964 120.377 77.3873 120.377 75.5749V69.9983H118.829V68.3253H120.377V64.6308H122.419Z" fill="white"/>
<path d="M135.794 73.5534H128.473C128.614 74.9475 129.599 75.9931 131.077 75.9931C131.993 75.9931 132.767 75.6446 133.26 74.9475L135.583 75.0172C134.738 76.8296 133.049 77.8055 131.077 77.8055C128.332 77.8055 126.291 75.784 126.291 72.926C126.291 70.1377 128.262 68.1162 131.007 68.1162C133.541 68.0465 135.794 69.7194 135.794 73.5534ZM128.473 72.0198H133.471C133.401 70.8348 132.415 69.7892 131.077 69.7892C129.67 69.8589 128.754 70.6954 128.473 72.0198Z" fill="white"/>
<path d="M142.341 75.9931C143.397 75.9931 144.242 75.5052 144.734 74.6687L146.494 75.5749C145.72 76.969 144.101 77.8055 142.341 77.8055C139.595 77.8055 137.413 75.784 137.413 72.9957C137.413 70.1377 139.595 68.1162 142.341 68.1162C144.101 68.1162 145.72 68.9527 146.494 70.3468L144.734 71.253C144.242 70.4165 143.467 69.9286 142.341 69.9286C140.651 69.9286 139.525 71.253 139.525 72.9957C139.525 74.7384 140.651 75.9931 142.341 75.9931Z" fill="white"/>
<path d="M150.718 68.8133C150.718 69.0921 150.718 69.2315 150.718 69.4406C151.492 68.5344 152.548 68.0465 153.745 68.0465C155.927 68.0465 157.194 69.3709 157.194 71.4621V77.457H155.153V71.741C155.153 70.4165 154.378 69.8589 153.322 69.8589C152.407 69.8589 151.562 70.2771 150.788 71.1833V77.457H148.747V68.3253H150.718V68.8133Z" fill="white"/>
<path d="M164.374 68.0465C167.12 68.0465 169.302 70.068 169.302 72.8563C169.302 75.6446 167.05 77.7358 164.374 77.7358C161.629 77.7358 159.447 75.7143 159.447 72.8563C159.447 69.9983 161.629 68.0465 164.374 68.0465ZM164.374 69.8589C162.685 69.8589 161.488 71.1833 161.488 72.926C161.488 74.6687 162.685 75.9931 164.374 75.9931C166.064 75.9931 167.261 74.6687 167.261 72.926C167.19 71.1136 166.064 69.8589 164.374 69.8589Z" fill="white"/>
<path d="M173.808 63.2367H171.766V77.5267H173.808V63.2367Z" fill="white"/>
<path d="M181.129 68.0465C183.874 68.0465 186.057 70.068 186.057 72.8563C186.057 75.6446 183.804 77.7358 181.129 77.7358C178.383 77.7358 176.201 75.7143 176.201 72.8563C176.201 69.9983 178.383 68.0465 181.129 68.0465ZM181.129 69.8589C179.439 69.8589 178.243 71.1833 178.243 72.926C178.243 74.6687 179.439 75.9931 181.129 75.9931C182.818 75.9931 184.015 74.6687 184.015 72.926C184.015 71.1136 182.818 69.8589 181.129 69.8589Z" fill="white"/>
<path d="M197.672 68.3253V78.2238C197.672 79.6179 196.968 81.0121 194.715 81.0121H190.843V79.3391H194.434C194.997 79.3391 195.63 79.1997 195.63 78.3632V76.1325C195.138 77.0387 193.87 77.6661 192.533 77.6661C189.858 77.6661 187.887 75.6446 187.887 72.8563C187.887 69.9983 189.787 68.0465 192.533 68.0465C193.87 68.0465 195.138 68.7435 195.701 69.6497C195.701 69.4406 195.701 69.2315 195.701 68.9527V68.3253H197.672ZM192.814 75.9931C194.504 75.9931 195.701 74.6687 195.701 72.926C195.701 71.1833 194.504 69.8589 192.814 69.8589C191.125 69.8589 189.928 71.1833 189.928 72.926C189.928 74.6687 191.125 75.9931 192.814 75.9931Z" fill="white"/>
<path d="M203.163 77.457H201.121V69.9983H199.713V68.3253H203.163V77.457ZM201.966 63.5852C202.74 63.5852 203.444 64.2126 203.444 65.0491C203.444 65.8158 202.811 66.4432 201.966 66.4432C201.192 66.4432 200.558 65.8158 200.558 65.0491C200.558 64.2126 201.192 63.5852 201.966 63.5852Z" fill="white"/>
<path d="M211.399 71.3227C211.399 70.3468 210.625 69.8589 209.499 69.8589C208.513 69.8589 207.598 70.2771 206.894 70.8348L205.908 69.3012C206.683 68.6041 208.02 68.0465 209.639 68.0465C212.103 68.0465 213.511 69.3709 213.511 71.3227V77.457H211.47V76.4811C210.906 77.3176 209.78 77.6661 208.795 77.6661C206.683 77.6661 205.416 76.4811 205.416 74.7384C205.416 72.926 206.683 71.9501 208.795 71.9501H210.766C211.258 71.9501 211.399 71.741 211.399 71.3924V71.3227ZM211.399 74.111V73.3442C211.188 73.4837 210.906 73.5534 210.414 73.5534H209.147C208.091 73.5534 207.527 74.0413 207.527 74.8081C207.527 75.5052 208.091 76.2022 209.147 76.2022C210.343 76.1325 211.399 75.5749 211.399 74.111Z" fill="white"/>
</g>
<defs>
<clipPath id="clip0_11132_2579">
<rect width="224" height="81" fill="white" transform="translate(0 0.5)"/>
</clipPath>
</defs>
</svg>
