<svg width="223" height="39" viewBox="0 0 223 39" fill="none" xmlns="http://www.w3.org/2000/svg">
<path d="M19.1188 38.3291C8.54904 38.3291 0 29.7596 0 19.1645C0 8.4137 8.54904 0 19.1188 0C29.8439 0 38.2375 8.56951 38.2375 19.3203C38.2375 29.7596 29.6885 38.3291 19.1188 38.3291ZM19.1188 4.9859C13.3676 4.9859 8.85991 8.10208 6.6838 13.2438C5.90661 15.1135 5.4403 17.139 5.4403 19.1645C5.4403 21.1901 5.90661 23.2156 6.6838 25.0853C9.01535 30.227 13.523 33.3432 19.1188 33.3432C25.1808 33.3432 29.8439 29.9154 32.02 24.1504C32.6418 22.5923 32.9527 20.8784 32.9527 19.1645C32.9527 11.5299 27.2015 4.9859 19.1188 4.9859Z" fill="white"/>
<path d="M61.0869 23.0597C59.9988 23.5271 58.7553 23.6829 57.5118 23.6829L67.7706 37.3941H61.0869L48.9628 20.2551H48.8073V37.3941H43.5225V0.623169H54.8694C58.289 0.623169 62.0195 1.24641 64.6619 3.73935C66.9935 6.07649 68.0815 9.34848 68.0815 12.4647C68.0815 17.4506 65.9054 21.5016 61.0869 23.0597ZM54.5585 5.60906H48.9628V19.7877H52.6932C57.5118 19.7877 62.7967 18.3854 62.7967 12.6205C62.7967 7.79039 58.9107 5.60906 54.5585 5.60906Z" fill="white"/>
<path d="M73.0557 37.55V0.623169H78.496V37.55H73.0557Z" fill="white"/>
<path d="M168.96 37.55V6.38811H168.805L156.37 37.55H153.106L140.671 6.38811H140.515V37.55H135.23V0.623169H143.624L154.66 28.8246L165.696 0.623169H174.09V37.55H168.96Z" fill="white"/>
<path d="M180.307 37.55V0.623169H185.747V37.55H180.307Z" fill="white"/>
<path d="M217.767 32.2524C213.726 36.3035 208.907 37.55 203.467 37.55H191.654V0.623169H203.622C209.529 0.623169 215.125 2.49288 218.7 7.47877C221.031 10.7508 222.43 15.1134 222.43 19.3203C222.43 23.5271 220.876 29.1363 217.767 32.2524ZM216.057 13.5553C213.881 8.25782 209.374 5.60906 203.622 5.60906H197.094V32.7199H203.467C211.861 32.7199 216.99 27.8898 216.99 19.3203C217.145 17.2948 216.679 15.425 216.057 13.5553Z" fill="white"/>
<path d="M98.5469 24.6179V19.632H123.728V21.9691C122.173 29.9154 116.578 38.0175 104.143 38.3291H103.365C101.373 38.3291 99.509 38.0673 97.7759 37.5438L97.7697 37.55C89.2206 35.0571 84.2466 27.1108 84.2466 19.3203C83.9358 8.25789 92.3294 0 102.744 0C108.961 0 113.313 1.86971 117.044 5.29751L113.935 9.50436C112.381 7.79046 108.339 4.9859 102.899 4.9859C95.4381 4.9859 89.2206 10.9066 89.2206 19.3203C89.2206 26.3068 94.3143 31.7461 100.194 33.1718L100.257 33.1874L106.94 33.0316C107.161 32.9801 107.382 32.9256 107.601 32.8664C111.417 31.8334 115.134 29.4791 117.044 24.6179H98.5469Z" fill="#A494F5"/>
<path d="M103.366 38.329H104.143L123.573 7.63458H123.728V37.55H129.168V0.623169H122.485C114.092 12.8776 105.837 25.2379 97.3037 37.3941C97.4591 37.4471 97.6177 37.497 97.7762 37.5437C99.5094 38.0672 101.371 38.329 103.366 38.329Z" fill="white"/>
</svg>
