<svg width="198" height="74" viewBox="0 0 198 74" fill="none" xmlns="http://www.w3.org/2000/svg">
<path d="M30.5703 17.6555L15.283 8.82776L0 17.6555V8.82776L15.2852 0L30.5725 8.82776V17.6555H30.5703Z" fill="#A435F0"/>
<path d="M0 25.0686H8.00703V44.5284C8.00703 49.5561 11.7603 52.0068 15.2852 52.0068C18.8405 52.0068 22.5655 49.4908 22.5655 44.4609V25.0686H30.5725V44.992C30.5725 49.6235 29.1169 53.1973 26.2056 55.648C23.2922 58.0965 19.6542 59.2892 15.2177 59.2892C10.7856 59.2892 7.14541 58.0987 4.3016 55.648C1.45563 53.1995 0 49.7585 0 45.1901V25.0686ZM99.7964 49.2535C97.3725 51.4126 94.6114 52.4704 91.4629 52.4704C85.7188 52.4704 81.8676 49.1969 81.4324 44.1279H107.303C107.303 44.1279 107.477 42.4912 107.477 40.9546C107.477 36.1882 105.954 32.2161 102.842 28.9732C99.8007 25.7302 95.832 24.1414 90.9995 24.1414C85.9059 24.1414 81.7348 25.7302 78.4254 28.9732C75.1834 32.2161 73.5298 36.4515 73.5298 41.7491V42.0102C73.5298 47.2403 75.1834 51.4104 78.4254 54.5228C81.6674 57.6329 85.969 59.2218 91.1975 59.2218C97.2767 59.2218 102.114 56.8233 105.743 52.688L99.7964 49.2535ZM84.5786 33.0105C86.3628 31.6198 88.5495 30.8928 90.9973 30.8928C93.3124 30.8928 95.2315 31.6198 96.8873 33.078C98.4669 34.4056 99.3198 36.0358 99.3938 37.9098H81.6369C81.8937 35.9727 82.8728 34.3404 84.5808 33.0127L84.5786 33.0105ZM180.398 63.7183C177.149 71.3904 173.75 74 168.539 74H164.927V66.9004H167.847C169.64 66.9004 171.307 66.2256 172.895 62.5605L174.484 58.8909L160.785 25.0686H168.924L178.653 49.4276L188.646 25.0686H196.784L180.4 63.7183H180.398ZM61.7434 12.2949V28.0895C59.1193 25.7389 55.0375 24.3395 51.0905 24.3395C46.3907 24.3395 42.422 25.9936 39.1801 29.3671C36.0034 32.6775 34.415 36.7802 34.415 41.7447C34.415 46.7114 36.0034 50.8141 39.1801 54.1898C42.422 57.5002 46.3929 59.1565 51.0905 59.1565C56.5083 59.1565 59.9331 57.0257 61.7434 55.3564V58.4273H69.6851V12.2971H61.7434V12.2949ZM59.3608 49.0294C57.4418 50.949 54.994 51.9436 52.148 51.9436C49.302 51.9436 46.9869 50.949 45.0678 49.0294C43.2184 47.1097 42.2893 44.6612 42.2893 41.7491C42.2893 38.8348 43.2162 36.3862 45.0678 34.4666C46.9869 32.5469 49.302 31.5545 52.148 31.5545C54.994 31.5545 57.4418 32.5469 59.3608 34.4666C61.3452 36.3862 62.3417 38.8348 62.3417 41.7491C62.3417 44.6612 61.3452 47.1097 59.3608 49.0294ZM148.439 24.4069C142.408 24.4069 139.272 26.9099 137.125 29.3214C136.265 27.6825 133.846 24.4069 128.193 24.4069C123.415 24.4069 120.599 26.8228 119.194 28.5422V25.0729H111.322V58.4317H119.194V39.2352C119.194 34.7343 121.975 31.4914 125.678 31.4914C129.453 31.4914 131.635 34.3382 131.635 38.9044V58.4295H139.509V39.2331C139.509 34.6668 142.221 31.4892 146.124 31.4892C149.897 31.4892 152.079 34.336 152.079 38.9001V58.4273H160.021V37.777C160.021 29.0798 155.347 24.4091 148.439 24.4091V24.4069Z" fill="white"/>
</svg>
