<svg width="94" height="20" viewBox="0 0 94 20" fill="none" xmlns="http://www.w3.org/2000/svg">
<path d="M5.16 19.64C4.06667 19.64 3.18 19.3133 2.5 18.66C1.82 18.0067 1.48 17.08 1.48 15.88V12.2C1.48 11.7867 1.35333 11.4733 1.1 11.26C0.846667 11.0333 0.52 10.92 0.12 10.92V9.12C0.52 9.12 0.846667 9.01333 1.1 8.8C1.35333 8.57333 1.48 8.25333 1.48 7.84V4.24C1.48 3.04 1.82 2.11333 2.5 1.46C3.18 0.806666 4.06667 0.48 5.16 0.48H5.6V2H5.16C4.57333 2 4.12 2.18667 3.8 2.56C3.48 2.92 3.32 3.45333 3.32 4.16V7.64C3.32 8.33333 3.16 8.87333 2.84 9.26C2.52 9.63333 2.05333 9.86 1.44 9.94V10.1C2.05333 10.18 2.52 10.4067 2.84 10.78C3.16 11.1533 3.32 11.6933 3.32 12.4V15.96C3.32 16.6667 3.48 17.2 3.8 17.56C4.12 17.9333 4.57333 18.12 5.16 18.12H5.6V19.64H5.16ZM88.2545 19.64C89.3479 19.64 90.2345 19.3133 90.9145 18.66C91.5945 18.0067 91.9345 17.08 91.9345 15.88V12.2C91.9345 11.7867 92.0612 11.4733 92.3145 11.26C92.5679 11.0333 92.8945 10.92 93.2945 10.92V9.12C92.8945 9.12 92.5679 9.01333 92.3145 8.8C92.0612 8.57333 91.9345 8.25333 91.9345 7.84V4.24C91.9345 3.04 91.5945 2.11333 90.9145 1.46C90.2345 0.806666 89.3479 0.48 88.2545 0.48H87.8145V2H88.2545C88.8412 2 89.2945 2.18667 89.6145 2.56C89.9345 2.92 90.0945 3.45333 90.0945 4.16V7.64C90.0945 8.33333 90.2545 8.87333 90.5745 9.26C90.8945 9.63333 91.3612 9.86 91.9745 9.94V10.1C91.3612 10.18 90.8945 10.4067 90.5745 10.78C90.2545 11.1533 90.0945 11.6933 90.0945 12.4V15.96C90.0945 16.6667 89.9345 17.2 89.6145 17.56C89.2945 17.9333 88.8412 18.12 88.2545 18.12H87.8145V19.64H88.2545Z" fill="#9245F5"/>
<path d="M12.3903 16V4.78C12.3903 3.59333 12.7036 2.72 13.3303 2.16C13.957 1.6 14.877 1.32 16.0903 1.32H17.4103V2.92H15.7703C15.277 2.92 14.897 3.06 14.6303 3.34C14.3636 3.60667 14.2303 3.98 14.2303 4.46V16H12.3903ZM10.9103 6.88V5.44H17.6103V6.88H10.9103ZM22.7884 16.32C21.3884 16.32 20.3018 16.02 19.5284 15.42C18.7684 14.82 18.3751 14 18.3484 12.96H20.1484C20.1751 13.3733 20.3818 13.7667 20.7684 14.14C21.1684 14.5 21.8418 14.68 22.7884 14.68C23.6418 14.68 24.2951 14.5133 24.7484 14.18C25.2018 13.8333 25.4284 13.4133 25.4284 12.92C25.4284 12.48 25.2618 12.14 24.9284 11.9C24.5951 11.6467 24.0551 11.48 23.3084 11.4L22.1484 11.28C21.1351 11.1733 20.3084 10.8733 19.6684 10.38C19.0284 9.87333 18.7084 9.16667 18.7084 8.26C18.7084 7.58 18.8818 7 19.2284 6.52C19.5751 6.02667 20.0551 5.65333 20.6684 5.4C21.2818 5.13333 21.9884 5 22.7884 5C23.9884 5 24.9618 5.26667 25.7084 5.8C26.4551 6.33333 26.8418 7.12667 26.8684 8.18H25.0684C25.0551 7.75333 24.8551 7.39333 24.4684 7.1C24.0951 6.79333 23.5351 6.64 22.7884 6.64C22.0418 6.64 21.4751 6.79333 21.0884 7.1C20.7018 7.40667 20.5084 7.79333 20.5084 8.26C20.5084 8.66 20.6418 8.98 20.9084 9.22C21.1884 9.46 21.6418 9.61333 22.2684 9.68L23.4284 9.8C24.5751 9.92 25.4951 10.24 26.1884 10.76C26.8818 11.2667 27.2284 11.9867 27.2284 12.92C27.2284 13.5867 27.0351 14.18 26.6484 14.7C26.2751 15.2067 25.7551 15.6067 25.0884 15.9C24.4218 16.18 23.6551 16.32 22.7884 16.32ZM36.0711 16V12.8H35.7511V9.1C35.7511 8.36667 35.5578 7.81333 35.1711 7.44C34.7978 7.06667 34.2444 6.88 33.5111 6.88C33.0978 6.88 32.6711 6.88667 32.2311 6.9C31.7911 6.91333 31.3711 6.92667 30.9711 6.94C30.5711 6.95333 30.2244 6.97333 29.9311 7V5.32C30.2244 5.29333 30.5311 5.27333 30.8511 5.26C31.1844 5.23333 31.5244 5.22 31.8711 5.22C32.2178 5.20667 32.5511 5.2 32.8711 5.2C33.9644 5.2 34.8578 5.33333 35.5511 5.6C36.2444 5.85333 36.7578 6.27333 37.0911 6.86C37.4244 7.44667 37.5911 8.24 37.5911 9.24V16H36.0711ZM32.5711 16.28C31.7711 16.28 31.0778 16.1467 30.4911 15.88C29.9178 15.6 29.4711 15.2 29.1511 14.68C28.8444 14.16 28.6911 13.5333 28.6911 12.8C28.6911 12.04 28.8578 11.4067 29.1911 10.9C29.5378 10.3933 30.0378 10.0133 30.6911 9.76C31.3444 9.49333 32.1311 9.36 33.0511 9.36H35.9511V10.8H32.9711C32.1978 10.8 31.6044 10.9867 31.1911 11.36C30.7778 11.7333 30.5711 12.2133 30.5711 12.8C30.5711 13.3867 30.7778 13.86 31.1911 14.22C31.6044 14.58 32.1978 14.76 32.9711 14.76C33.4244 14.76 33.8578 14.68 34.2711 14.52C34.6844 14.3467 35.0244 14.0667 35.2911 13.68C35.5711 13.28 35.7244 12.7333 35.7511 12.04L36.2711 12.8C36.2044 13.56 36.0178 14.2 35.7111 14.72C35.4178 15.2267 35.0044 15.6133 34.4711 15.88C33.9511 16.1467 33.3178 16.28 32.5711 16.28ZM40.715 16V5.32H42.235V9.9H41.995C41.995 8.84667 42.135 7.96 42.415 7.24C42.7083 6.50667 43.1483 5.95333 43.735 5.58C44.3217 5.19333 45.0617 5 45.955 5H46.035C47.3817 5 48.375 5.42 49.015 6.26C49.6683 7.1 49.995 8.31333 49.995 9.9V16H48.075V9.5C48.075 8.67333 47.8417 8.01333 47.375 7.52C46.9083 7.01333 46.2683 6.76 45.455 6.76C44.615 6.76 43.935 7.02 43.415 7.54C42.895 8.06 42.635 8.75333 42.635 9.62V16H40.715ZM57.268 16.12C56.468 16.12 55.7746 16.0067 55.188 15.78C54.6146 15.5533 54.168 15.1667 53.848 14.62C53.5413 14.06 53.388 13.3067 53.388 12.36V2.08H55.228V12.6C55.228 13.1733 55.3813 13.62 55.688 13.94C56.008 14.2467 56.4546 14.4 57.028 14.4H58.908V16.12H57.268ZM51.548 6.76V5.32H58.908V6.76H51.548ZM66.0655 16.36C65.1321 16.36 64.3121 16.2 63.6055 15.88C62.8988 15.56 62.2988 15.14 61.8055 14.62C61.3255 14.0867 60.9588 13.4933 60.7055 12.84C60.4655 12.1867 60.3455 11.52 60.3455 10.84V10.48C60.3455 9.8 60.4721 9.13333 60.7255 8.48C60.9788 7.81333 61.3521 7.22 61.8455 6.7C62.3388 6.16667 62.9388 5.74667 63.6455 5.44C64.3521 5.12 65.1588 4.96 66.0655 4.96C66.9721 4.96 67.7788 5.12 68.4855 5.44C69.1921 5.74667 69.7921 6.16667 70.2855 6.7C70.7788 7.22 71.1521 7.81333 71.4055 8.48C71.6588 9.13333 71.7855 9.8 71.7855 10.48V10.84C71.7855 11.52 71.6588 12.1867 71.4055 12.84C71.1655 13.4933 70.7988 14.0867 70.3055 14.62C69.8255 15.14 69.2321 15.56 68.5255 15.88C67.8188 16.2 66.9988 16.36 66.0655 16.36ZM66.0655 14.64C66.8655 14.64 67.5455 14.4667 68.1055 14.12C68.6788 13.76 69.1121 13.28 69.4055 12.68C69.7121 12.08 69.8655 11.4067 69.8655 10.66C69.8655 9.9 69.7121 9.22 69.4055 8.62C69.0988 8.02 68.6588 7.54667 68.0855 7.2C67.5255 6.85333 66.8521 6.68 66.0655 6.68C65.2921 6.68 64.6188 6.85333 64.0455 7.2C63.4721 7.54667 63.0321 8.02 62.7255 8.62C62.4188 9.22 62.2655 9.9 62.2655 10.66C62.2655 11.4067 62.4121 12.08 62.7055 12.68C63.0121 13.28 63.4455 13.76 64.0055 14.12C64.5788 14.4667 65.2655 14.64 66.0655 14.64ZM77.7611 16.32C76.3611 16.32 75.2744 16.02 74.5011 15.42C73.7411 14.82 73.3478 14 73.3211 12.96H75.1211C75.1478 13.3733 75.3544 13.7667 75.7411 14.14C76.1411 14.5 76.8144 14.68 77.7611 14.68C78.6144 14.68 79.2678 14.5133 79.7211 14.18C80.1744 13.8333 80.4011 13.4133 80.4011 12.92C80.4011 12.48 80.2344 12.14 79.9011 11.9C79.5678 11.6467 79.0278 11.48 78.2811 11.4L77.1211 11.28C76.1078 11.1733 75.2811 10.8733 74.6411 10.38C74.0011 9.87333 73.6811 9.16667 73.6811 8.26C73.6811 7.58 73.8544 7 74.2011 6.52C74.5478 6.02667 75.0278 5.65333 75.6411 5.4C76.2544 5.13333 76.9611 5 77.7611 5C78.9611 5 79.9344 5.26667 80.6811 5.8C81.4278 6.33333 81.8144 7.12667 81.8411 8.18H80.0411C80.0278 7.75333 79.8278 7.39333 79.4411 7.1C79.0678 6.79333 78.5078 6.64 77.7611 6.64C77.0144 6.64 76.4478 6.79333 76.0611 7.1C75.6744 7.40667 75.4811 7.79333 75.4811 8.26C75.4811 8.66 75.6144 8.98 75.8811 9.22C76.1611 9.46 76.6144 9.61333 77.2411 9.68L78.4011 9.8C79.5478 9.92 80.4678 10.24 81.1611 10.76C81.8544 11.2667 82.2011 11.9867 82.2011 12.92C82.2011 13.5867 82.0078 14.18 81.6211 14.7C81.2478 15.2067 80.7278 15.6067 80.0611 15.9C79.3944 16.18 78.6278 16.32 77.7611 16.32Z" fill="#2C2C2C"/>
</svg>
